<svg width="32" height="32" viewBox="0 0 32 32" fill="none" xmlns="http://www.w3.org/2000/svg">
<path d="M17.9475 16.7435L21.9303 18.2091C22.4103 18.4428 22.8179 19.0991 23.0226 19.6051C23.0639 19.7072 23.0809 19.8171 23.0809 19.9272V21.8299C23.0885 22.2146 22.8167 22.984 21.6695 22.984H10.0705C9.03462 22.984 8.93029 21.9841 8.92081 21.8457C8.92006 21.8348 8.91992 21.8244 8.91992 21.8136V19.9272C8.91992 19.8171 8.93608 19.7068 8.98074 19.6061C9.18623 19.1428 9.59251 18.7005 10.0705 18.4677L13.7878 16.7435L13.8324 16.7217C13.9202 16.679 14.0149 16.6529 14.1077 16.6226C14.3846 16.532 14.6015 16.3199 14.7275 16.0609C14.8756 15.7564 14.6751 15.4297 14.4084 15.2211C13.4724 14.4888 12.5487 13.3418 12.5487 12.0019C12.5487 6.18531 19.4522 6.16107 19.4522 12.0019C19.4522 13.3215 18.4477 14.5013 17.4723 15.2896C17.2701 15.453 17.1039 15.6868 17.1682 15.9387C17.2611 16.3022 17.5563 16.6165 17.9475 16.7435Z" stroke="#3C3C3C" stroke-width="1.2"/>
</svg>
