<svg width="258" height="57" viewBox="0 0 258 57" fill="none" xmlns="http://www.w3.org/2000/svg">
<path d="M70.7212 5.73236V8.6616H79.4107V32.3884H82.6915V8.6616H91.7653V5.73236H70.7212Z" fill="#3C3C3C"/>
<path d="M127.626 8.62637C126.643 7.41191 125.381 6.45014 123.945 5.82244C122.508 5.19474 120.941 4.9196 119.375 5.02029C117.781 4.96904 116.198 5.29638 114.758 5.97505C113.318 6.65372 112.061 7.66408 111.094 8.92196C109.051 11.773 108.005 15.2092 108.116 18.7057C107.994 22.3323 109.037 25.9034 111.094 28.9033C111.981 30.1627 113.17 31.1839 114.552 31.8752C115.935 32.5665 117.47 32.9063 119.017 32.8641C120.645 32.9501 122.271 32.6582 123.765 32.0117C125.26 31.3652 126.581 30.3819 127.626 29.1397C129.765 26.1004 130.814 22.4366 130.604 18.7353C130.835 15.1235 129.78 11.5461 127.626 8.62637ZM125.094 26.9524C124.494 27.9074 123.647 28.6852 122.641 29.2051C121.635 29.7249 120.507 29.9677 119.375 29.9083C118.177 29.9589 116.988 29.6825 115.938 29.1092C114.888 28.5359 114.016 27.6877 113.418 26.6569C112.067 24.2165 111.408 21.4585 111.511 18.6762C111.409 15.9503 112.069 13.2495 113.418 10.8728C114.071 9.91386 114.963 9.13814 116.006 8.62042C117.049 8.1027 118.21 7.86044 119.375 7.91699H119.643C121.49 7.91699 127.119 7.91698 127.119 18.7057C127.297 21.5943 126.591 24.4687 125.094 26.9524Z" fill="#3C3C3C"/>
<path d="M166.936 5.70505V24.0657L151.432 5V32.3794H154.443V14.2538L170.248 32.8788V5.70505H166.936Z" fill="#3C3C3C"/>
<path d="M204.393 17.2402L212.389 5.73236H208.924L198.263 20.1466V5.73236H195.005V32.3884H198.263V25.196L202.172 19.7356L209.99 32.3884H213.574L204.393 17.2402Z" fill="#3C3C3C"/>
<path d="M243.036 5.24506L232.143 32.3902H235.526L237.842 26.6553H248.379L250.664 32.3902H253.929L243.036 5.24506ZM238.791 23.6849L242.917 13.0386L247.043 23.6849H238.791Z" fill="#3C3C3C"/>
<path d="M72.943 49.7742V54.3316H71.356V43.6759H72.943V44.43C73.4613 43.807 74.1361 43.4955 74.9674 43.4955C75.8959 43.4955 76.6787 43.8289 77.3157 44.4955C77.9634 45.1513 78.2873 46.0147 78.2873 47.0857C78.2873 48.1895 77.9526 49.0857 77.2833 49.7742C76.6139 50.4518 75.8473 50.7906 74.9836 50.7906C74.1739 50.7906 73.4937 50.4518 72.943 49.7742ZM74.7731 44.9382C74.2332 44.9382 73.7744 45.1349 73.3965 45.5283C73.0294 45.9108 72.8459 46.4573 72.8459 47.1677C72.8459 47.8562 73.0294 48.3917 73.3965 48.7742C73.7744 49.1567 74.2332 49.348 74.7731 49.348C75.3345 49.348 75.7879 49.1349 76.1334 48.7087C76.4897 48.2824 76.6679 47.7633 76.6679 47.1513C76.6679 46.5283 76.4897 46.0037 76.1334 45.5775C75.7879 45.1513 75.3345 44.9382 74.7731 44.9382Z" fill="#3C3C3C"/>
<path d="M89.5796 48.2496L90.9075 49.0037C90.6052 49.5502 90.222 49.971 89.7577 50.266C89.2287 50.6158 88.5593 50.7906 87.7495 50.7906C86.7994 50.7906 86.0329 50.4955 85.4499 49.9054C84.7805 49.2278 84.4458 48.348 84.4458 47.266C84.4458 46.1294 84.8075 45.1841 85.5309 44.43C86.1463 43.807 86.9074 43.4955 87.8143 43.4955C88.6996 43.4955 89.4284 43.7961 90.0006 44.3972C90.6376 45.0638 90.9561 46.0365 90.9561 47.3152V47.5119H86.0653C86.1085 48.0912 86.3028 48.5556 86.6483 48.9054C86.9398 49.2005 87.3447 49.348 87.8629 49.348C88.284 49.348 88.6457 49.2332 88.948 49.0037C89.1963 48.807 89.4068 48.5556 89.5796 48.2496ZM86.1786 46.2005H89.3366C89.2719 45.8179 89.1099 45.5065 88.8508 45.266C88.5701 45.0037 88.2138 44.8726 87.7819 44.8726C87.3285 44.8726 86.956 45.0201 86.6645 45.3152C86.427 45.5338 86.265 45.8289 86.1786 46.2005Z" fill="#3C3C3C"/>
<path d="M97.4733 50.5775V43.6759H99.0604V44.2988C99.2655 44.0584 99.4868 43.8671 99.7243 43.725C99.9835 43.572 100.307 43.4955 100.696 43.4955C101.16 43.4955 101.576 43.6048 101.943 43.8234L101.295 45.2824C101.036 45.1185 100.766 45.0365 100.486 45.0365C100.064 45.0365 99.7351 45.1622 99.4976 45.4136C99.2061 45.7305 99.0604 46.2606 99.0604 47.0037V50.5775H97.4733Z" fill="#3C3C3C"/>
<path d="M111.333 45.1513H109.616V50.5775H108.029V45.1513H107.349V43.6759H108.029V41.2824C108.029 40.3207 108.25 39.5994 108.693 39.1185C109.114 38.6704 109.654 38.4464 110.312 38.4464C110.69 38.4464 111.03 38.5119 111.333 38.6431V40.2332C111.063 40.0693 110.809 39.9873 110.572 39.9873C110.269 39.9873 110.037 40.0748 109.875 40.2496C109.702 40.4245 109.616 40.6977 109.616 41.0693V43.6759H111.333V45.1513Z" fill="#3C3C3C"/>
<path d="M117.091 43.6759H118.678V47.6267C118.678 48.2059 118.775 48.6212 118.969 48.8726C119.207 49.1895 119.552 49.348 120.006 49.348C120.459 49.348 120.805 49.1895 121.042 48.8726C121.236 48.6212 121.334 48.2059 121.334 47.6267V43.6759H122.921V47.6759C122.921 48.6923 122.678 49.4464 122.192 49.9382C121.63 50.5065 120.891 50.7906 119.973 50.7906C119.088 50.7906 118.37 50.5065 117.819 49.9382C117.333 49.4464 117.091 48.6923 117.091 47.6759V43.6759Z" fill="#3C3C3C"/>
<path d="M129.793 50.5775V43.6759H131.38V44.3152C131.823 43.7688 132.384 43.4955 133.065 43.4955C133.853 43.4955 134.441 43.8343 134.83 44.5119C135.294 43.8343 135.969 43.4955 136.854 43.4955C137.74 43.4955 138.387 43.8562 138.798 44.5775C139.035 45.0037 139.154 45.583 139.154 46.3152V50.5775H137.567V46.7742C137.567 46.1731 137.518 45.7633 137.421 45.5447C137.27 45.1403 136.968 44.9382 136.514 44.9382C136.125 44.9382 135.812 45.1076 135.575 45.4464C135.37 45.7414 135.267 46.266 135.267 47.0201V50.5775H133.68V46.7742C133.68 46.1731 133.631 45.7633 133.534 45.5447C133.383 45.1403 133.081 44.9382 132.627 44.9382C132.239 44.9382 131.926 45.1076 131.688 45.4464C131.483 45.7414 131.38 46.266 131.38 47.0201V50.5775H129.793Z" fill="#3C3C3C"/>
<path d="M150.8 48.2496L152.128 49.0037C151.826 49.5502 151.443 49.971 150.979 50.266C150.45 50.6158 149.78 50.7906 148.97 50.7906C148.02 50.7906 147.254 50.4955 146.671 49.9054C146.001 49.2278 145.667 48.348 145.667 47.266C145.667 46.1294 146.028 45.1841 146.752 44.43C147.367 43.807 148.128 43.4955 149.035 43.4955C149.92 43.4955 150.649 43.7961 151.221 44.3972C151.858 45.0638 152.177 46.0365 152.177 47.3152V47.5119H147.286C147.329 48.0912 147.524 48.5556 147.869 48.9054C148.161 49.2005 148.566 49.348 149.084 49.348C149.505 49.348 149.867 49.2332 150.169 49.0037C150.417 48.807 150.628 48.5556 150.8 48.2496ZM147.399 46.2005H150.557C150.493 45.8179 150.331 45.5065 150.072 45.266C149.791 45.0037 149.435 44.8726 149.003 44.8726C148.549 44.8726 148.177 45.0201 147.885 45.3152C147.648 45.5338 147.486 45.8289 147.399 46.2005Z" fill="#3C3C3C"/>
<path d="M162.856 44.7087L161.674 45.4955C161.436 45.1021 161.113 44.9054 160.702 44.9054C160.497 44.9054 160.335 44.9655 160.216 45.0857C160.119 45.1841 160.071 45.3043 160.071 45.4464C160.071 45.6103 160.146 45.7414 160.297 45.8398C160.33 45.8617 160.362 45.8835 160.395 45.9054C160.427 45.9163 160.486 45.9436 160.573 45.9873C160.659 46.0311 160.745 46.0748 160.832 46.1185L161.642 46.5283C162.095 46.7578 162.414 46.9709 162.597 47.1677C162.932 47.5065 163.099 47.9327 163.099 48.4464C163.099 49.0584 162.899 49.583 162.5 50.0201C162.036 50.5338 161.399 50.7906 160.589 50.7906C159.984 50.7906 159.493 50.6431 159.115 50.348C158.705 50.042 158.413 49.6212 158.241 49.0857L159.536 48.4628C159.644 48.7797 159.768 48.9983 159.909 49.1185C160.081 49.2934 160.314 49.3808 160.605 49.3808C160.886 49.3808 161.102 49.3043 161.253 49.1513C161.404 48.9983 161.48 48.8179 161.48 48.6103C161.48 48.4136 161.409 48.2387 161.269 48.0857C161.118 47.9327 160.891 47.7906 160.589 47.6595L160.006 47.3808C159.552 47.1622 159.239 46.9655 159.067 46.7906C158.743 46.4737 158.581 46.0857 158.581 45.6267C158.581 45.0474 158.77 44.5556 159.148 44.1513C159.558 43.7141 160.114 43.4955 160.816 43.4955C161.301 43.4955 161.723 43.6158 162.079 43.8562C162.403 44.0638 162.662 44.348 162.856 44.7087Z" fill="#3C3C3C"/>
<path d="M178.027 50.5775V43.6759H179.614V44.3152C180.056 43.7688 180.618 43.4955 181.298 43.4955C182.086 43.4955 182.675 43.8343 183.063 44.5119C183.528 43.8343 184.202 43.4955 185.088 43.4955C185.973 43.4955 186.621 43.8562 187.031 44.5775C187.269 45.0037 187.387 45.583 187.387 46.3152V50.5775H185.8V46.7742C185.8 46.1731 185.752 45.7633 185.654 45.5447C185.503 45.1403 185.201 44.9382 184.748 44.9382C184.359 44.9382 184.046 45.1076 183.808 45.4464C183.603 45.7414 183.501 46.266 183.501 47.0201V50.5775H181.913V46.7742C181.913 46.1731 181.865 45.7633 181.768 45.5447C181.617 45.1403 181.314 44.9382 180.861 44.9382C180.472 44.9382 180.159 45.1076 179.921 45.4464C179.716 45.7414 179.614 46.266 179.614 47.0201V50.5775H178.027Z" fill="#3C3C3C"/>
<path d="M194.936 44.5283C195.638 43.8398 196.507 43.4955 197.544 43.4955C198.58 43.4955 199.444 43.8398 200.135 44.5283C200.837 45.2059 201.188 46.0748 201.188 47.1349C201.188 48.1841 200.837 49.0584 200.135 49.7578C199.444 50.4464 198.58 50.7906 197.544 50.7906C196.507 50.7906 195.638 50.4464 194.936 49.7578C194.245 49.0584 193.9 48.1841 193.9 47.1349C193.9 46.0748 194.245 45.2059 194.936 44.5283ZM196.07 48.7578C196.437 49.1513 196.928 49.348 197.544 49.348C198.159 49.348 198.65 49.1513 199.018 48.7578C199.385 48.3535 199.568 47.8179 199.568 47.1513C199.568 46.419 199.368 45.8671 198.969 45.4955C198.58 45.124 198.105 44.9382 197.544 44.9382C196.982 44.9382 196.502 45.124 196.103 45.4955C195.714 45.8671 195.52 46.419 195.52 47.1513C195.52 47.8179 195.703 48.3535 196.07 48.7578Z" fill="#3C3C3C"/>
<path d="M211.865 44.7087L210.682 45.4955C210.445 45.1021 210.121 44.9054 209.711 44.9054C209.505 44.9054 209.344 44.9655 209.225 45.0857C209.128 45.1841 209.079 45.3043 209.079 45.4464C209.079 45.6103 209.155 45.7414 209.306 45.8398C209.338 45.8617 209.37 45.8835 209.403 45.9054C209.435 45.9163 209.495 45.9436 209.581 45.9873C209.667 46.0311 209.754 46.0748 209.84 46.1185L210.65 46.5283C211.103 46.7578 211.422 46.9709 211.605 47.1677C211.94 47.5065 212.107 47.9327 212.107 48.4464C212.107 49.0584 211.908 49.583 211.508 50.0201C211.044 50.5338 210.407 50.7906 209.597 50.7906C208.993 50.7906 208.501 50.6431 208.123 50.348C207.713 50.042 207.422 49.6212 207.249 49.0857L208.545 48.4628C208.653 48.7797 208.777 48.9983 208.917 49.1185C209.09 49.2934 209.322 49.3808 209.613 49.3808C209.894 49.3808 210.11 49.3043 210.261 49.1513C210.412 48.9983 210.488 48.8179 210.488 48.6103C210.488 48.4136 210.418 48.2387 210.277 48.0857C210.126 47.9327 209.9 47.7906 209.597 47.6595L209.014 47.3808C208.561 47.1622 208.248 46.9655 208.075 46.7906C207.751 46.4737 207.589 46.0857 207.589 45.6267C207.589 45.0474 207.778 44.5556 208.156 44.1513C208.566 43.7141 209.122 43.4955 209.824 43.4955C210.31 43.4955 210.731 43.6158 211.087 43.8562C211.411 44.0638 211.67 44.348 211.865 44.7087Z" fill="#3C3C3C"/>
<path d="M223.676 43.9873V45.7906C223.104 45.2223 222.462 44.9382 221.749 44.9382C221.144 44.9382 220.642 45.1403 220.243 45.5447C219.854 45.9382 219.66 46.4682 219.66 47.1349C219.66 47.8234 219.865 48.3753 220.275 48.7906C220.664 49.1622 221.144 49.348 221.717 49.348C222.505 49.348 223.158 49.0529 223.676 48.4628V50.2496C223.104 50.6103 222.413 50.7906 221.603 50.7906C220.513 50.7906 219.649 50.4518 219.012 49.7742C218.364 49.0966 218.04 48.2332 218.04 47.1841C218.04 46.1021 218.386 45.2114 219.077 44.5119C219.746 43.8343 220.659 43.4955 221.814 43.4955C222.472 43.4955 223.093 43.6595 223.676 43.9873Z" fill="#3C3C3C"/>
<path d="M230.736 44.5283C231.438 43.8398 232.307 43.4955 233.343 43.4955C234.38 43.4955 235.243 43.8398 235.934 44.5283C236.636 45.2059 236.987 46.0748 236.987 47.1349C236.987 48.1841 236.636 49.0584 235.934 49.7578C235.243 50.4464 234.38 50.7906 233.343 50.7906C232.307 50.7906 231.438 50.4464 230.736 49.7578C230.045 49.0584 229.699 48.1841 229.699 47.1349C229.699 46.0748 230.045 45.2059 230.736 44.5283ZM231.87 48.7578C232.237 49.1513 232.728 49.348 233.343 49.348C233.959 49.348 234.45 49.1513 234.817 48.7578C235.184 48.3535 235.368 47.8179 235.368 47.1513C235.368 46.419 235.168 45.8671 234.768 45.4955C234.38 45.124 233.905 44.9382 233.343 44.9382C232.782 44.9382 232.301 45.124 231.902 45.4955C231.513 45.8671 231.319 46.419 231.319 47.1513C231.319 47.8179 231.502 48.3535 231.87 48.7578Z" fill="#3C3C3C"/>
<path d="M242.595 43.6759H244.376L246.142 47.6267L248.053 43.0857L249.964 47.6267L251.729 43.6759H253.51L249.964 51.0693L248.053 46.6595L246.142 51.0693L242.595 43.6759Z" fill="#3C3C3C"/>
<path d="M52.7566 28.697C52.7566 43.325 41.3442 55.1187 27.3444 55.1187C13.3446 55.1187 1.93213 43.325 1.93213 28.697C1.93213 14.0689 13.3446 2.27521 27.3444 2.27521C41.3442 2.27521 52.7566 14.0689 52.7566 28.697Z" stroke="#3C3C3C" stroke-width="2"/>
<path d="M31.254 23.8103C31.1306 20.156 29.9555 16.6239 27.8803 13.6697L27.3495 12.9471L26.8068 13.6697C24.7316 16.6239 23.5565 20.156 23.4331 23.8103C23.5415 27.2908 24.6101 30.6659 26.5119 33.5345C25.6011 34.9974 25.0951 36.692 25.0492 38.4333C25.1146 40.3392 25.7266 42.1815 26.8068 43.724L27.3495 44.4466L27.8803 43.724C28.9605 42.1815 29.5725 40.3392 29.6379 38.4333C29.5944 36.6916 29.0882 34.9963 28.1752 33.5345C30.077 30.6659 31.1456 27.2908 31.254 23.8103ZM27.3495 15.3598C28.9176 17.8863 29.7981 20.8063 29.8974 23.8103C29.8019 26.8187 28.9213 29.7437 27.3495 32.273C25.7835 29.7408 24.9034 26.8176 24.8015 23.8103C24.8967 20.8056 25.7775 17.8845 27.3495 15.3598ZM27.3495 41.9115C26.7352 40.8455 26.4109 39.6265 26.4109 38.3843C26.4109 37.1421 26.7352 35.9232 27.3495 34.8571C27.927 35.9387 28.2466 37.1482 28.2814 38.3843C28.2526 39.6214 27.9327 40.8323 27.3495 41.9115Z" fill="#3C3C3C" stroke="#3C3C3C" stroke-width="0.1"/>
</svg>
