<svg width="258" height="57" fill="none" xmlns="http://www.w3.org/2000/svg"><path d="M70.721 5.732v2.93h8.69v23.726h3.28V8.662h9.074v-2.93H70.721ZM127.626 8.626a9.767 9.767 0 0 0-3.681-2.804 9.84 9.84 0 0 0-4.57-.802 10.072 10.072 0 0 0-4.617.955 9.996 9.996 0 0 0-3.664 2.947 15.926 15.926 0 0 0-2.978 9.784 17.017 17.017 0 0 0 2.978 10.197 9.339 9.339 0 0 0 3.458 2.972 9.416 9.416 0 0 0 4.465.99 10.556 10.556 0 0 0 4.748-.853 10.479 10.479 0 0 0 3.861-2.872 16.454 16.454 0 0 0 2.978-10.405 15.373 15.373 0 0 0-2.978-10.109Zm-2.532 18.326a6.325 6.325 0 0 1-2.453 2.253 6.388 6.388 0 0 1-3.266.703 6.593 6.593 0 0 1-3.437-.799 6.53 6.53 0 0 1-2.52-2.452 15.306 15.306 0 0 1-1.907-7.98 14.693 14.693 0 0 1 1.907-7.804 6.774 6.774 0 0 1 2.588-2.253 6.835 6.835 0 0 1 3.369-.703h.268c1.847 0 7.476 0 7.476 10.789a14.271 14.271 0 0 1-2.025 8.246ZM166.936 5.705v18.36L151.432 5v27.38h3.011V14.253l15.805 18.625V5.705h-3.312ZM204.393 17.24l7.996-11.508h-3.465l-10.661 14.415V5.732h-3.258v26.656h3.258v-7.192l3.909-5.46 7.818 12.652h3.584l-9.181-15.148ZM243.036 5.245 232.143 32.39h3.383l2.316-5.735h10.537l2.285 5.735h3.265L243.036 5.245Zm-4.245 18.44 4.126-10.646 4.126 10.646h-8.252ZM72.943 49.774v4.558h-1.587V43.676h1.587v.754c.518-.623 1.193-.934 2.024-.934.929 0 1.712.333 2.349 1 .647.655.971 1.519.971 2.59 0 1.104-.334 2-1.004 2.688-.67.678-1.436 1.017-2.3 1.017-.81 0-1.49-.34-2.04-1.017Zm1.83-4.836c-.54 0-.999.197-1.376.59-.368.383-.551.93-.551 1.64 0 .688.183 1.224.55 1.606.378.383.837.574 1.377.574.562 0 1.015-.213 1.36-.64.357-.426.535-.945.535-1.557 0-.623-.178-1.147-.535-1.574-.345-.426-.798-.639-1.36-.639ZM89.58 48.25l1.328.754c-.303.546-.686.967-1.15 1.262-.53.35-1.199.525-2.008.525-.95 0-1.717-.295-2.3-.886-.67-.677-1.004-1.557-1.004-2.639 0-1.137.362-2.082 1.085-2.836.615-.623 1.376-.934 2.283-.934.886 0 1.614.3 2.187.901.637.667.955 1.64.955 2.918v.197h-4.89c.043.58.237 1.044.582 1.393.292.295.697.443 1.215.443.421 0 .783-.115 1.085-.344a2.54 2.54 0 0 0 .632-.754Zm-3.401-2.05h3.158a1.597 1.597 0 0 0-.486-.934c-.28-.262-.637-.393-1.07-.393-.453 0-.825.147-1.117.442-.237.219-.399.514-.485.886ZM97.473 50.578v-6.902h1.587v.623a2.7 2.7 0 0 1 .664-.574c.26-.153.583-.23.972-.23.464 0 .88.11 1.247.328l-.648 1.46a1.492 1.492 0 0 0-.809-.247c-.422 0-.75.126-.988.378-.292.316-.438.847-.438 1.59v3.574h-1.587ZM111.333 45.151h-1.717v5.426h-1.587v-5.426h-.68v-1.475h.68v-2.394c0-.961.221-1.683.664-2.163.421-.449.961-.673 1.619-.673.378 0 .718.066 1.021.197v1.59c-.27-.164-.524-.246-.761-.246-.303 0-.535.088-.697.263-.173.175-.259.448-.259.82v2.606h1.717v1.475ZM117.091 43.676h1.587v3.95c0 .58.097.995.291 1.247.238.317.583.475 1.037.475.453 0 .799-.158 1.036-.475.194-.252.292-.667.292-1.246v-3.951h1.587v4c0 1.016-.243 1.77-.729 2.262-.562.569-1.301.853-2.219.853-.885 0-1.603-.284-2.154-.853-.486-.492-.728-1.246-.728-2.262v-4ZM129.793 50.578v-6.902h1.587v.64c.443-.547 1.004-.82 1.685-.82.788 0 1.376.338 1.765 1.016.464-.678 1.139-1.017 2.024-1.017.886 0 1.533.361 1.944 1.083.237.426.356 1.005.356 1.737v4.263h-1.587v-3.804c0-.6-.049-1.01-.146-1.23-.151-.404-.453-.606-.907-.606-.389 0-.702.17-.939.508-.205.295-.308.82-.308 1.574v3.557h-1.587v-3.803c0-.6-.049-1.01-.146-1.23-.151-.404-.453-.606-.907-.606-.388 0-.701.17-.939.508-.205.295-.308.82-.308 1.574v3.557h-1.587ZM150.8 48.25l1.328.754c-.302.546-.685.967-1.149 1.262-.529.35-1.199.525-2.009.525-.95 0-1.716-.295-2.299-.886-.67-.677-1.004-1.557-1.004-2.639 0-1.137.361-2.082 1.085-2.836.615-.623 1.376-.934 2.283-.934.885 0 1.614.3 2.186.901.637.667.956 1.64.956 2.918v.197h-4.891c.043.58.238 1.044.583 1.393.292.295.697.443 1.215.443.421 0 .783-.115 1.085-.344.248-.197.459-.448.631-.754Zm-3.401-2.05h3.158a1.593 1.593 0 0 0-.485-.934c-.281-.262-.637-.393-1.069-.393-.454 0-.826.147-1.118.442-.237.219-.399.514-.486.886ZM162.856 44.709l-1.182.786c-.238-.393-.561-.59-.972-.59-.205 0-.367.06-.486.18a.494.494 0 0 0-.145.361.45.45 0 0 0 .226.394l.098.065c.032.011.091.039.178.082l.259.131.81.41c.453.23.772.443.955.64.335.339.502.765.502 1.278 0 .612-.2 1.137-.599 1.574-.464.514-1.101.77-1.911.77-.605 0-1.096-.147-1.474-.442-.41-.306-.702-.727-.874-1.262l1.295-.623c.108.317.232.535.373.655.172.175.405.263.696.263.281 0 .497-.077.648-.23a.756.756 0 0 0 .016-1.066c-.151-.152-.378-.294-.68-.425l-.583-.28c-.454-.218-.767-.415-.939-.59a1.565 1.565 0 0 1-.486-1.163c0-.58.189-1.071.567-1.476.41-.437.966-.656 1.668-.656.485 0 .907.12 1.263.361.324.208.583.492.777.853ZM178.027 50.578v-6.902h1.587v.64c.442-.547 1.004-.82 1.684-.82.788 0 1.377.338 1.765 1.016.465-.678 1.139-1.017 2.025-1.017.885 0 1.533.361 1.943 1.083.238.426.356 1.005.356 1.737v4.263H185.8v-3.804c0-.6-.048-1.01-.146-1.23-.151-.404-.453-.606-.906-.606-.389 0-.702.17-.94.508-.205.295-.307.82-.307 1.574v3.557h-1.588v-3.803c0-.6-.048-1.01-.145-1.23-.151-.404-.454-.606-.907-.606-.389 0-.702.17-.94.508-.205.295-.307.82-.307 1.574v3.557h-1.587ZM194.936 44.528c.702-.688 1.571-1.032 2.608-1.032 1.036 0 1.9.344 2.591 1.032.702.678 1.053 1.547 1.053 2.607 0 1.05-.351 1.923-1.053 2.623-.691.688-1.555 1.033-2.591 1.033-1.037 0-1.906-.345-2.608-1.033-.691-.7-1.036-1.574-1.036-2.623 0-1.06.345-1.93 1.036-2.607Zm1.134 4.23c.367.393.858.59 1.474.59.615 0 1.106-.197 1.474-.59.367-.405.55-.94.55-1.607 0-.732-.2-1.284-.599-1.656a1.986 1.986 0 0 0-1.425-.557 2.04 2.04 0 0 0-1.441.557c-.389.372-.583.924-.583 1.656 0 .667.183 1.202.55 1.607ZM211.865 44.709l-1.183.786c-.237-.393-.561-.59-.971-.59-.206 0-.367.06-.486.18a.495.495 0 0 0-.146.361.45.45 0 0 0 .227.394l.097.065c.032.011.092.039.178.082l.259.131.81.41c.453.23.772.443.955.64.335.339.502.765.502 1.278 0 .612-.199 1.137-.599 1.574-.464.514-1.101.77-1.911.77-.604 0-1.096-.147-1.474-.442-.41-.306-.701-.727-.874-1.262l1.296-.623c.108.317.232.535.372.655.173.175.405.263.696.263.281 0 .497-.077.648-.23a.745.745 0 0 0 .227-.54.752.752 0 0 0-.211-.525c-.151-.153-.377-.295-.68-.426l-.583-.28c-.453-.218-.766-.415-.939-.59a1.565 1.565 0 0 1-.486-1.163c0-.58.189-1.071.567-1.476.41-.437.966-.656 1.668-.656.486 0 .907.12 1.263.361.324.208.583.492.778.853ZM223.676 43.987v1.804c-.572-.569-1.214-.853-1.927-.853-.605 0-1.107.202-1.506.607-.389.393-.583.923-.583 1.59 0 .688.205 1.24.615 1.656.389.371.869.557 1.442.557.788 0 1.441-.295 1.959-.885v1.787c-.572.36-1.263.54-2.073.54-1.09 0-1.954-.338-2.591-1.016-.648-.677-.972-1.54-.972-2.59 0-1.082.346-1.973 1.037-2.672.669-.678 1.582-1.017 2.737-1.017.658 0 1.279.165 1.862.492ZM230.736 44.528c.702-.688 1.571-1.032 2.607-1.032 1.037 0 1.9.344 2.591 1.032.702.678 1.053 1.547 1.053 2.607 0 1.05-.351 1.923-1.053 2.623-.691.688-1.554 1.033-2.591 1.033-1.036 0-1.905-.345-2.607-1.033-.691-.7-1.037-1.574-1.037-2.623 0-1.06.346-1.93 1.037-2.607Zm1.134 4.23c.367.393.858.59 1.473.59.616 0 1.107-.197 1.474-.59.367-.405.551-.94.551-1.607 0-.732-.2-1.284-.6-1.656-.388-.371-.863-.557-1.425-.557a2.04 2.04 0 0 0-1.441.557c-.389.372-.583.924-.583 1.656 0 .667.183 1.202.551 1.607ZM242.595 43.676h1.781l1.766 3.95 1.911-4.54 1.911 4.54 1.765-3.95h1.781l-3.546 7.393-1.911-4.41-1.911 4.41-3.547-7.393Z" fill="#3C3C3C"/><path d="M52.757 28.697c0 14.628-11.413 26.422-25.413 26.422S1.932 43.325 1.932 28.697 13.345 2.275 27.344 2.275c14 0 25.413 11.794 25.413 26.422Z" stroke="#3C3C3C" stroke-width="2"/><path d="M31.254 23.81a18.754 18.754 0 0 0-3.374-10.14l-.53-.723-.543.723a18.754 18.754 0 0 0-3.374 10.14 18.661 18.661 0 0 0 3.079 9.725 9.761 9.761 0 0 0-1.463 4.898 9.816 9.816 0 0 0 1.758 5.291l.543.723.53-.723a9.816 9.816 0 0 0 1.758-5.29 9.712 9.712 0 0 0-1.463-4.9 18.661 18.661 0 0 0 3.079-9.724Zm-3.905-8.45a17.107 17.107 0 0 1 2.548 8.45 17.07 17.07 0 0 1-2.547 8.463A17.207 17.207 0 0 1 24.8 23.81a17.017 17.017 0 0 1 2.549-8.45Zm0 26.551a7.07 7.07 0 0 1-.938-3.527 7.07 7.07 0 0 1 .938-3.527 7.97 7.97 0 0 1 .932 3.527 7.806 7.806 0 0 1-.931 3.527Z" fill="#3C3C3C" stroke="#3C3C3C" stroke-width=".1"/></svg>