<svg width="25" height="25" viewBox="0 0 25 25" fill="none" xmlns="http://www.w3.org/2000/svg">
<circle cx="12.5" cy="12.5" r="12" stroke="#3C3C3C"></circle>
<path d="M18.0599 15.4361C17.6369 14.6363 16.168 13.7691 16.1034 13.7312C15.9146 13.6237 15.7176 13.5668 15.5333 13.5668C15.2593 13.5668 15.0349 13.6924 14.899 13.9208C14.6842 14.1778 14.4177 14.4783 14.353 14.5248C13.8525 14.8645 13.4607 14.8259 13.0271 14.3923L10.6075 11.9722C10.1767 11.5413 10.1371 11.1446 10.4744 10.6467C10.5216 10.5816 10.822 10.3149 11.079 10.0998C11.2429 10.0022 11.3554 9.85728 11.4047 9.67946C11.4702 9.44286 11.4219 9.16454 11.2673 8.89338C11.2309 8.83102 10.3634 7.36169 9.56415 6.93884C9.415 6.85983 9.2469 6.81812 9.07837 6.81812C8.80072 6.81812 8.53951 6.92641 8.34318 7.12256L7.80853 7.65707C6.96295 8.50256 6.65687 9.46098 6.89828 10.5056C7.09967 11.3761 7.68656 12.3025 8.64294 13.2588L11.7407 16.357C12.9511 17.5676 14.1051 18.1815 15.1706 18.1815C15.1706 18.1815 15.1706 18.1815 15.1708 18.1815C15.9544 18.1815 16.685 17.8484 17.3416 17.1917L17.876 16.6572C18.2009 16.3325 18.2746 15.8416 18.0599 15.4361Z" fill="#3C3C3C"></path>
</svg>
