<svg width="25" height="25" fill="none" xmlns="http://www.w3.org/2000/svg"><circle cx="12.5" cy="12.5" r="12" stroke="#3C3C3C"/><path d="M18.06 15.436c-.423-.8-1.892-1.667-1.957-1.705a1.167 1.167 0 0 0-.57-.164.71.71 0 0 0-.634.354c-.215.257-.481.557-.546.604-.5.34-.892.3-1.326-.133l-2.42-2.42c-.43-.43-.47-.827-.133-1.325.048-.065.348-.332.605-.547a.7.7 0 0 0 .326-.42c.065-.237.017-.515-.138-.787-.036-.062-.904-1.531-1.703-1.954a1.042 1.042 0 0 0-1.22.184l-.535.534c-.846.846-1.152 1.804-.91 2.849.2.87.788 1.796 1.744 2.753l3.098 3.098c1.21 1.21 2.364 1.825 3.43 1.825.783 0 1.514-.334 2.17-.99l.535-.535c.325-.325.399-.815.184-1.22Z" fill="#3C3C3C"/></svg>