<svg width="35" height="37" fill="none" xmlns="http://www.w3.org/2000/svg"><path d="M33.069 18.5c0 9.155-7.194 16.538-16.02 16.538S1.029 27.655 1.029 18.5c0-9.155 7.194-16.538 16.02-16.538s16.02 7.383 16.02 16.538Z" stroke="#3C3C3C" stroke-width="1.5"/><path d="M19.532 15.42a11.768 11.768 0 0 0-2.142-6.394l-.338-.455-.344.455a11.766 11.766 0 0 0-2.142 6.393 11.706 11.706 0 0 0 1.955 6.13c-.579.923-.9 1.991-.929 3.09a6.159 6.159 0 0 0 1.116 3.335l.345.455.337-.455a6.16 6.16 0 0 0 1.116-3.336 6.091 6.091 0 0 0-.93-3.088 11.707 11.707 0 0 0 1.956-6.13Zm-2.48-5.328a10.73 10.73 0 0 1 1.618 5.327c-.06 1.897-.62 3.74-1.618 5.335a10.794 10.794 0 0 1-1.617-5.335c.06-1.894.62-3.736 1.617-5.327Zm0 16.739a4.433 4.433 0 0 1-.595-2.224c0-.783.206-1.551.595-2.223.367.681.57 1.444.592 2.223a4.894 4.894 0 0 1-.591 2.224Z" fill="#3C3C3C" stroke="#3C3C3C" stroke-width=".2"/></svg>