<svg width="35" height="37" viewBox="0 0 35 37" fill="none" xmlns="http://www.w3.org/2000/svg">
<path d="M33.0687 18.5C33.0687 27.6552 25.8751 35.0377 17.049 35.0377C8.22289 35.0377 1.0293 27.6552 1.0293 18.5C1.0293 9.34488 8.2229 1.9624 17.049 1.9624C25.8751 1.9624 33.0687 9.34488 33.0687 18.5Z" stroke="#3C3C3C" stroke-width="1.5"></path>
<path d="M19.5316 15.4193C19.4532 13.1155 18.7071 10.8888 17.3895 9.02628L17.0525 8.57074L16.708 9.02628C15.3903 10.8888 14.6442 13.1155 14.5659 15.4193C14.6347 17.6135 15.3132 19.7413 16.5207 21.5497C15.9424 22.472 15.6212 23.5404 15.592 24.6381C15.6335 25.8397 16.0221 27.0011 16.708 27.9736L17.0525 28.4291L17.3895 27.9736C18.0754 27.0011 18.4639 25.8397 18.5055 24.6381C18.4779 23.5401 18.1565 22.4713 17.5768 21.5497C18.7843 19.7413 19.4627 17.6135 19.5316 15.4193ZM17.0525 10.0918C18.0482 11.6846 18.6072 13.5255 18.6703 15.4193C18.6096 17.3159 18.0505 19.1599 17.0525 20.7545C16.0583 19.1581 15.4994 17.3152 15.4347 15.4193C15.4952 13.525 16.0544 11.6834 17.0525 10.0918ZM17.0525 26.8309C16.6625 26.1588 16.4566 25.3904 16.4566 24.6072C16.4566 23.8241 16.6625 23.0557 17.0525 22.3836C17.4192 23.0654 17.6221 23.8279 17.6442 24.6072C17.6259 25.3871 17.4228 26.1506 17.0525 26.8309Z" fill="#3C3C3C" stroke="#3C3C3C" stroke-width="0.2"></path>
</svg>
