<svg width="25" height="25" fill="none" xmlns="http://www.w3.org/2000/svg"><circle cx="12.5" cy="12.5" r="12" stroke="#3C3C3C"/><path d="M7.5 17v-1.29c0-.11.016-.222.064-.321.15-.31.426-.6.748-.757l2.626-1.214c.082-.04.172-.064.258-.097a.734.734 0 0 0 .321-.246c.204-.271-.007-.612-.266-.83-.616-.518-1.188-1.282-1.188-2.166 0-4.097 4.874-4.114 4.874 0 0 .887-.647 1.685-1.305 2.239-.2.167-.373.409-.268.647.091.206.277.377.511.453l2.813 1.032c.324.158.602.588.752.938.043.101.06.211.06.322V17" stroke="#3C3C3C"/></svg>