<svg width="25" height="25" viewBox="0 0 25 25" fill="none" xmlns="http://www.w3.org/2000/svg">
<circle cx="12.5" cy="12.5" r="12" stroke="#3C3C3C"></circle>
<path d="M7.5 17V15.7097C7.5 15.5992 7.51556 15.4882 7.56388 15.3889C7.71458 15.0793 7.9905 14.7886 8.3125 14.6322L10.9375 13.4179V13.4179C11.0204 13.3777 11.1104 13.3541 11.1964 13.321C11.3256 13.2713 11.4347 13.1837 11.517 13.0746C11.7212 12.8039 11.5104 12.4626 11.2508 12.2446C10.635 11.7275 10.0625 10.9627 10.0625 10.0787C10.0625 5.98231 14.9375 5.96524 14.9375 10.0787C14.9375 10.9664 14.2902 11.7643 13.632 12.3178C13.4327 12.4853 13.2591 12.7265 13.3641 12.9648C13.455 13.1712 13.6406 13.342 13.875 13.4179L16.6875 14.45C17.0121 14.6077 17.2899 15.0383 17.4398 15.3875C17.4833 15.489 17.5 15.5992 17.5 15.7097V17" stroke="#3C3C3C"></path>
</svg>
