<svg width="32" height="32" fill="none" xmlns="http://www.w3.org/2000/svg"><path d="m17.948 16.744 3.982 1.465c.48.234.888.89 1.093 1.396a.857.857 0 0 1 .058.322v1.903c.008.385-.264 1.154-1.412 1.154H10.07c-1.035 0-1.14-1-1.15-1.138v-1.919c0-.11.016-.22.06-.32a2.39 2.39 0 0 1 1.09-1.14l3.718-1.723.044-.022c.088-.043.183-.07.276-.1.277-.09.493-.302.62-.561.148-.305-.053-.631-.32-.84-.936-.732-1.86-1.88-1.86-3.22 0-5.816 6.904-5.84 6.904 0 0 1.32-1.004 2.5-1.98 3.289-.202.163-.368.397-.304.649.093.363.388.677.78.805Z" stroke="#3C3C3C" stroke-width="1.2"/></svg>