<svg width="24" height="25" fill="none" xmlns="http://www.w3.org/2000/svg"><g clip-path="url('#clip0_5_1386')"><path d="M20.146 4.343v.001a11.319 11.319 0 0 1 3.36 8.057c-.006 6.279-5.143 11.394-11.452 11.394h-.005c-1.916 0-3.8-.481-5.474-1.388l-.174-.094-.19.05-5.5 1.435 1.461-5.33.056-.201-.105-.18a11.376 11.376 0 0 1-1.526-5.698C.603 6.115 5.74 1 12.05 1c3.065 0 5.94 1.185 8.097 3.343Z" stroke="#3C3C3C"/><path d="M15.458 13.911c.275.103 1.741.821 2.04.97.297.148.498.222.572.347.075.126.075.719-.172 1.414-.252.696-1.443 1.33-2.016 1.415-.516.074-1.163.108-1.88-.12-.435-.137-.99-.32-1.701-.627-2.997-1.289-4.95-4.288-5.1-4.488-.148-.2-1.22-1.608-1.22-3.073 0-1.466.768-2.184 1.043-2.48.275-.297.596-.371.797-.371.2 0 .4 0 .572.011.184.006.43-.074.67.508.253.593.849 2.058.923 2.206.075.149.12.32.023.52-.097.199-.149.324-.298.495-.149.171-.315.388-.447.52-.149.147-.303.307-.131.604.177.296.773 1.271 1.661 2.058 1.14 1.015 2.103 1.329 2.4 1.477.298.148.476.125.648-.074.172-.194.745-.867.945-1.164.195-.296.396-.245.67-.148Z" fill="#3C3C3C"/></g><defs><clipPath id="clip0_5_1386"><path fill="#fff" transform="translate(0 .5)" d="M0 0h24v24H0z"/></clipPath></defs></svg>