<svg width="24" height="25" viewBox="0 0 24 25" fill="none" xmlns="http://www.w3.org/2000/svg">
<g clip-path="url('#clip0_5_1386')">
<path d="M20.1458 4.34316L20.1467 4.34406C22.3099 6.49696 23.5001 9.3575 23.5057 12.4007C23.4997 18.6798 18.3629 23.7947 12.0544 23.7947H12.0487C10.1327 23.7947 8.24937 23.3139 6.57474 22.4068L6.40125 22.3128L6.21034 22.3626L0.711023 23.7977L2.17234 18.4683L2.22753 18.267L2.12324 18.0862C1.12423 16.3544 0.597438 14.3993 0.597398 12.389C0.602994 6.11542 5.73979 1 12.0487 1C15.114 1 17.9886 2.18533 20.1458 4.34316Z" stroke="#3C3C3C"></path>
<path d="M15.4577 13.9112C15.7327 14.0139 17.1994 14.7323 17.4973 14.8806C17.7952 15.0289 17.9958 15.103 18.0702 15.2284C18.1447 15.3539 18.1447 15.9469 17.8984 16.6425C17.6463 17.3382 16.4546 17.9711 15.8817 18.0567C15.366 18.1308 14.7186 18.165 14.0024 17.9369C13.567 17.8001 13.0113 17.6176 12.3008 17.3097C9.30443 16.021 7.35074 13.0217 7.20178 12.8222C7.05282 12.6226 5.98145 11.2142 5.98145 9.74874C5.98145 8.28331 6.74917 7.56485 7.02417 7.26834C7.29918 6.97183 7.62002 6.89771 7.82055 6.89771C8.02107 6.89771 8.2216 6.89771 8.39347 6.90911C8.57681 6.91481 8.82317 6.83498 9.0638 7.41659C9.31589 8.00961 9.91174 9.47504 9.98622 9.62329C10.0607 9.77155 10.1065 9.94261 10.0091 10.1422C9.91174 10.3418 9.86017 10.4672 9.71121 10.6383C9.56225 10.8093 9.3961 11.026 9.26433 11.1571C9.11536 11.3054 8.96067 11.4651 9.13255 11.7616C9.31016 12.0581 9.90601 13.0331 10.794 13.82C11.9342 14.835 12.8967 15.1486 13.1946 15.2969C13.4925 15.4451 13.6701 15.4223 13.842 15.2227C14.0139 15.0289 14.5868 14.356 14.7874 14.0595C14.9822 13.763 15.1827 13.8143 15.4577 13.9112Z" fill="#3C3C3C"></path>
</g>
<defs>
<clipPath id="clip0_5_1386">
<rect width="24" height="24" fill="white" transform="translate(0 0.5)"></rect>
</clipPath>
</defs>
</svg>
